<?xml version="1.0" standalone="no"?>
<!DOCTYPE svg PUBLIC "-//W3C//DTD SVG 20010904//EN"
 "http://www.w3.org/TR/2001/REC-SVG-20010904/DTD/svg10.dtd">
<svg version="1.0" xmlns="http://www.w3.org/2000/svg"
 width="360.000000pt" height="360.000000pt" viewBox="0 0 360.000000 360.000000"
 preserveAspectRatio="xMidYMid meet">

<g transform="translate(0.000000,360.000000) scale(0.100000,-0.100000)"
fill="#000000" stroke="none">
<path d="M1288 2814 c-45 -24 -58 -62 -58 -167 l0 -94 -155 -6 c-85 -3 -164
-11 -175 -17 -40 -21 -50 -61 -50 -195 0 -131 8 -165 39 -165 28 0 31 18 31
166 l0 134 440 2 440 3 0 -163 c0 -248 12 -262 235 -262 l125 0 0 -568 c0
-428 -3 -571 -12 -580 -17 -17 -1199 -17 -1216 0 -9 9 -12 120 -12 440 0 399
-1 428 -18 437 -11 6 -24 6 -35 0 -16 -9 -17 -44 -17 -450 l0 -441 28 -28 c19
-19 44 -31 73 -35 25 -4 305 -5 624 -3 448 3 585 7 603 17 51 28 52 33 52 702
l1 622 -113 116 c-63 64 -147 151 -188 194 l-74 77 -278 0 -278 0 0 93 c0 59
4 97 12 105 9 9 123 12 450 12 l438 0 0 -164 c0 -91 4 -176 10 -190 5 -14 24
-35 42 -46 29 -17 51 -20 171 -20 l137 0 0 -564 c0 -310 -3 -571 -6 -580 -5
-13 -24 -16 -104 -16 -75 0 -100 -4 -110 -15 -10 -13 -9 -19 6 -36 17 -19 27
-21 109 -17 114 6 150 23 165 77 7 27 10 243 8 650 l-3 611 -190 190 -190 190
-465 0 c-392 -1 -469 -3 -492 -16z m1260 -395 c4 -10 -187 -13 -236 -3 l-31 6
-3 135 c-2 74 -2 136 0 137 4 4 266 -263 270 -275z m-523 -149 l140 -140 -140
2 -140 3 -5 138 c-3 75 -3 137 0 137 3 0 68 -63 145 -140z"/>
<path d="M1098 2219 c-22 -13 -23 -55 -2 -63 31 -12 469 -7 482 6 18 18 14 46
-7 58 -26 13 -450 13 -473 -1z"/>
<path d="M862 2078 c-14 -14 -16 -156 -3 -176 4 -8 19 -12 32 -10 23 3 24 7
27 92 2 65 -1 92 -10 98 -18 11 -32 10 -46 -4z"/>
<path d="M1084 1886 c-3 -8 -4 -23 -2 -33 3 -17 28 -18 433 -21 237 -1 440 0
453 3 24 6 29 34 10 53 -9 9 -123 12 -450 12 -373 0 -439 -2 -444 -14z"/>
<path d="M1092 1568 c-18 -18 -14 -46 7 -58 12 -6 129 -10 311 -10 182 0 299
4 311 10 23 13 25 55 3 64 -9 3 -152 6 -318 6 -222 0 -305 -3 -314 -12z"/>
<path d="M1098 1229 c-21 -12 -23 -42 -4 -58 9 -8 122 -10 396 -9 352 3 384 4
394 21 8 12 8 22 0 35 -10 16 -42 17 -390 19 -245 2 -385 -1 -396 -8z"/>
</g>
</svg>
