<?xml version="1.0" encoding="UTF-8"?>
<svg version="1.1" xmlns="http://www.w3.org/2000/svg" width="360" height="360">
<path d="M0 0 C0.68067535 -0.00525696 1.36135071 -0.01051392 2.06265259 -0.01593018 C4.29143884 -0.02903098 6.5194987 -0.02042711 8.74829102 -0.01025391 C10.31096024 -0.01227774 11.87362854 -0.01519176 13.43629456 -0.01895142 C16.70355261 -0.02336153 19.97056374 -0.0169872 23.23779297 -0.00292969 C27.40825573 0.01414738 31.57813854 0.00432235 35.74857998 -0.01364708 C38.97353922 -0.02453277 42.19836297 -0.02101651 45.42332649 -0.0132637 C46.96018608 -0.01127415 48.4970583 -0.01367682 50.03390312 -0.02070236 C67.51856048 -0.08309493 67.51856048 -0.08309493 73.76782227 4.96630859 C74.19579102 5.51802734 74.62375977 6.06974609 75.06469727 6.63818359 C75.54680664 7.25177734 76.02891602 7.86537109 76.52563477 8.49755859 C77.81469727 10.38818359 77.81469727 10.38818359 79.68969727 13.88818359 C82.89706129 19.83321398 88.40370442 24.36155917 94.81469727 26.38818359 C97.69522036 26.54579334 100.47287672 26.59669179 103.34985352 26.54833984 C104.22457809 26.54254913 105.09930267 26.53675842 106.00053406 26.53079224 C107.93279934 26.51790385 109.86504067 26.50096417 111.79724121 26.4805603 C117.21570824 26.42799918 122.63429396 26.42242621 128.05297852 26.41162109 C129.2531662 26.40871567 130.45335388 26.40581024 131.68991089 26.40281677 C146.72257273 26.37212169 161.75477247 26.39516724 176.78700733 26.51867199 C181.10695218 26.55375795 185.42651769 26.5798135 189.74661255 26.58401489 C193.86565655 26.58826903 197.98388222 26.6161795 202.10267067 26.66167831 C203.63618039 26.67454279 205.16978755 26.67891706 206.70334435 26.67432022 C208.81919101 26.66943598 210.93255561 26.69535927 213.0480957 26.72875977 C214.83494781 26.73875252 214.83494781 26.73875252 216.65789795 26.74894714 C220.78787493 27.58524732 222.21989511 29.12267337 224.81469727 32.38818359 C226.68030629 36.20028633 227.06566828 39.26135798 227.06866455 43.4850769 C227.07712402 45.32291245 227.07712402 45.32291245 227.08575439 47.19787598 C227.08186612 48.54760802 227.07776981 49.89733947 227.07348633 51.24707031 C227.07619775 52.67485736 227.07975953 54.10264302 227.08410645 55.53042603 C227.09321641 59.40241224 227.08969151 63.27429175 227.08334827 67.14627981 C227.07827912 71.20292031 227.08298246 75.25955177 227.08612061 79.31619263 C227.08975841 86.13040809 227.0849669 92.94458019 227.07543945 99.75878906 C227.06456399 107.6278093 227.06807461 115.49672581 227.07909226 123.36574352 C227.08818086 130.12853947 227.08944247 136.89130427 227.08421493 143.65410435 C227.08110275 147.6901851 227.080665 151.72621718 227.0872879 155.76229477 C227.09308331 159.55934096 227.08902444 163.35625409 227.07749939 167.15328598 C227.07486414 168.5435972 227.07559842 169.9339197 227.08002472 171.32422638 C227.12165506 185.73370035 227.12165506 185.73370035 224.81469727 190.38818359 C219.26238353 194.36698862 215.07200992 194.96416559 208.35079956 194.88938904 C206.95054494 194.89769063 206.95054494 194.89769063 205.52200234 194.90615994 C202.40428731 194.91973745 199.28737681 194.90481277 196.16967773 194.88989258 C193.9304775 194.89367674 191.69127961 194.89917759 189.4520874 194.90626526 C183.37788013 194.92022265 177.303956 194.90904857 171.22976446 194.89255404 C164.87396873 194.87870289 158.51818941 194.88516357 152.16238403 194.88868713 C141.49125984 194.8913888 130.82025958 194.87800369 120.14916992 194.85473633 C109.17256497 194.83080557 98.19610878 194.82373708 87.21948242 194.83422852 C73.98429772 194.84685605 60.7491992 194.8443474 47.51401138 194.82856941 C42.46067829 194.82280703 37.40739496 194.82289426 32.35406113 194.82763481 C26.40652929 194.83240171 20.45920371 194.82231463 14.51171112 194.80068016 C12.32718476 194.79510874 10.14263859 194.79465023 7.95811081 194.79963303 C4.98005306 194.80557475 2.00262835 194.79310185 -0.97537231 194.77586365 C-2.27706806 194.78487872 -2.27706806 194.78487872 -3.6050607 194.79407591 C-9.30103772 194.73397269 -12.53672887 193.65838977 -16.93530273 189.88818359 C-19.75196597 186.50818771 -19.32058603 182.74992955 -19.33920288 178.56492615 C-19.34358513 177.86704753 -19.34796739 177.1691689 -19.35248244 176.45014244 C-19.36586321 174.10583767 -19.37204774 171.76157049 -19.37817383 169.41723633 C-19.38607556 167.73845754 -19.39434455 166.05968045 -19.4029541 164.38090515 C-19.4291727 158.86121238 -19.44448463 153.34151204 -19.45874023 147.82177734 C-19.46410056 145.92039548 -19.46947807 144.01901367 -19.47487259 142.11763191 C-19.49650379 134.20571646 -19.51523866 126.29380304 -19.52649498 118.3818655 C-19.54272109 107.05175471 -19.57586361 95.72198758 -19.63289583 84.39200634 C-19.67164485 76.4215795 -19.69113372 68.45124437 -19.69641554 60.48072582 C-19.70006307 55.72282333 -19.71202003 50.96528739 -19.74451828 46.20748711 C-19.77468522 41.72663203 -19.78088017 37.24636362 -19.76913452 32.76542854 C-19.76891449 31.12640822 -19.77716136 29.48736 -19.79478836 27.84843445 C-19.97298845 10.31634265 -19.97298845 10.31634265 -14.18530273 3.38818359 C-9.48847995 0.4546217 -5.469106 0.01068533 0 0 Z M-7.18530273 37.38818359 C-9.53028395 40.60186345 -9.53028395 40.60186345 -10.18530273 44.38818359 C-9.34618347 44.22421585 -8.50706421 44.06024811 -7.64251709 43.89131165 C-3.98715917 43.35934778 -0.56294263 43.29663023 3.13012695 43.33813477 C3.83670441 43.34441391 4.54328186 43.35069305 5.27127075 43.35716248 C6.79684165 43.37094832 8.32239447 43.38686857 9.84792328 43.40471458 C12.27070373 43.43153011 14.69339043 43.44929007 17.11627197 43.46418762 C24.00224568 43.50675282 30.88803553 43.55433502 37.77368164 43.63500977 C41.99515332 43.68381052 46.21636999 43.71260582 50.43808746 43.72875404 C52.03755122 43.7385867 53.63698892 43.7556968 55.23628998 43.78053856 C69.74678365 44.11233078 69.74678365 44.11233078 82.07659912 37.24894714 C82.65017151 36.63489517 83.2237439 36.0208432 83.81469727 35.38818359 C72.54040645 35.34186643 61.26613824 35.30631751 49.9917717 35.28455925 C44.75676872 35.27411699 39.52183078 35.25994965 34.28686523 35.23730469 C29.23591725 35.21559218 24.18503188 35.2036183 19.13404083 35.19842911 C17.20590479 35.1947305 15.27777221 35.18750815 13.34966278 35.17672348 C10.65140853 35.16222978 7.9534138 35.16020477 5.25512695 35.16113281 C4.4559938 35.15394226 3.65686066 35.14675171 2.83351135 35.13934326 C-2.4992905 35.1353989 -2.4992905 35.1353989 -7.18530273 37.38818359 Z " fill="#FCD469" transform="translate(76.185302734375,82.61181640625)"/>
<path d="M0 0 C0.68067535 -0.00525696 1.36135071 -0.01051392 2.06265259 -0.01593018 C4.29143884 -0.02903098 6.5194987 -0.02042711 8.74829102 -0.01025391 C10.31096024 -0.01227774 11.87362854 -0.01519176 13.43629456 -0.01895142 C16.70355261 -0.02336153 19.97056374 -0.0169872 23.23779297 -0.00292969 C27.40825573 0.01414738 31.57813854 0.00432235 35.74857998 -0.01364708 C38.97353922 -0.02453277 42.19836297 -0.02101651 45.42332649 -0.0132637 C46.96018608 -0.01127415 48.4970583 -0.01367682 50.03390312 -0.02070236 C67.51856048 -0.08309493 67.51856048 -0.08309493 73.76782227 4.96630859 C74.19579102 5.51802734 74.62375977 6.06974609 75.06469727 6.63818359 C75.54165039 7.24791016 76.01860352 7.85763672 76.51000977 8.48583984 C77.75894273 10.3068888 78.86877252 12.14552853 79.93969727 14.07568359 C81.62009791 17.38830454 81.62009791 17.38830454 84.00219727 19.57568359 C85.9615869 21.53507323 86.42865218 22.685868 86.81469727 25.38818359 C93.21143694 27.67714993 99.24302059 27.69417826 105.9921875 27.70703125 C107.20265244 27.71707687 108.41311737 27.7271225 109.66026306 27.73747253 C112.96143338 27.76297697 116.26243359 27.77988506 119.56366229 27.79290056 C123.02036034 27.80858527 126.47697253 27.83535832 129.93360901 27.8609314 C136.47113102 27.90762501 143.00866935 27.94441452 149.54627234 27.97760427 C156.99253723 28.01589242 164.43871569 28.06528493 171.8849076 28.11558843 C187.19477492 28.21876811 202.5046908 28.30807367 217.81469727 28.38818359 C217.15469727 28.71818359 216.49469727 29.04818359 215.81469727 29.38818359 C215.81469727 30.37818359 215.81469727 31.36818359 215.81469727 32.38818359 C151.95969727 31.89318359 151.95969727 31.89318359 86.81469727 31.38818359 C86.81469727 32.37818359 86.81469727 33.36818359 86.81469727 34.38818359 C85.11793854 34.39698296 85.11793854 34.39698296 83.38690186 34.40596008 C72.7335186 34.46314032 62.08034039 34.53587731 51.42716599 34.62389851 C45.95007545 34.66865119 40.47306014 34.70789656 34.99584961 34.73461914 C29.71133364 34.76060316 24.42710642 34.80097088 19.14276886 34.85136986 C17.12536456 34.86807175 15.10791028 34.87956529 13.09044647 34.8857975 C10.2674269 34.89540243 7.44515161 34.92341841 4.62231445 34.95581055 C3.3675103 34.95365791 3.3675103 34.95365791 2.08735657 34.95146179 C-2.36878651 35.02391089 -4.8560549 35.39256187 -8.18530273 38.38818359 C-9.17530273 38.38818359 -10.16530273 38.38818359 -11.18530273 38.38818359 C-11.09249023 40.27537109 -11.09249023 40.27537109 -10.99780273 42.20068359 C-10.99089172 46.10540394 -10.99089172 46.10540394 -12.56030273 48.38818359 C-14.18530273 49.38818359 -14.18530273 49.38818359 -16.18530273 49.38818359 C-16.18530273 50.70818359 -16.18530273 52.02818359 -16.18530273 53.38818359 C-16.84530273 53.38818359 -17.50530273 53.38818359 -18.18530273 53.38818359 C-18.28451141 47.39254532 -18.35693219 41.3973896 -18.4050293 35.40112305 C-18.42508906 33.36327791 -18.45234373 31.32548994 -18.48706055 29.2878418 C-18.53582707 26.35109312 -18.55832814 23.41510842 -18.57592773 20.47802734 C-18.59657288 19.57358383 -18.61721802 18.66914032 -18.63848877 17.73728943 C-18.64058261 11.77462784 -17.92721907 8.12842383 -14.18530273 3.38818359 C-9.2637268 0.82605754 -5.61729986 0.01097486 0 0 Z " fill="#F8B21A" transform="translate(76.185302734375,82.61181640625)"/>
<path d="M0 0 C1.43866975 0.48638474 1.43866975 0.48638474 2.90640354 0.98259544 C7.44601664 2.27038108 11.80508188 2.28894732 16.49754333 2.2784729 C17.43457425 2.2842653 18.37160516 2.2900577 19.33703095 2.29602563 C22.4661776 2.31298485 25.59517639 2.31589865 28.72436523 2.31884766 C30.97167826 2.32814863 33.21898784 2.33831756 35.46629333 2.34928894 C41.56071846 2.37658377 47.65512047 2.39173689 53.74959064 2.40471697 C60.12109702 2.4203497 66.49255623 2.4471395 72.86402893 2.4727478 C83.55606833 2.51421783 94.24810773 2.54881295 104.94018555 2.578125 C115.95094661 2.60832959 126.96168183 2.64268861 137.97241211 2.68261719 C138.991206 2.68630951 138.991206 2.68630951 140.03058159 2.69007643 C143.43805564 2.7024514 146.84552939 2.71490786 150.253003 2.72740483 C178.50196606 2.83090308 206.75096141 2.91998239 235 3 C235 3.66 235 4.32 235 5 C234.01 5 233.02 5 232 5 C232 5.66 232 6.32 232 7 C203.29406315 7.06842551 174.5881359 7.12152268 145.88213356 7.15319599 C142.49376925 7.15694815 139.10540509 7.16083111 135.71704102 7.16479492 C134.70518994 7.16597532 134.70518994 7.16597532 133.67289742 7.16717956 C122.74782041 7.18023645 111.82279071 7.20389184 100.89774177 7.23145839 C89.68912902 7.25950474 78.48053993 7.27595004 67.27189034 7.28226548 C60.97552261 7.2861817 54.67926223 7.29540703 48.38292885 7.31719017 C42.45933403 7.33751816 36.53589102 7.34384123 30.61226463 7.33932304 C28.43579153 7.34014989 26.25931347 7.34613736 24.08287048 7.35761642 C21.11542808 7.37250264 18.1485618 7.36896757 15.18110657 7.36076355 C14.31631646 7.36950207 13.45152635 7.3782406 12.56053048 7.38724393 C7.90253565 7.35234329 4.7609076 7.07074583 1 4 C0.1875 1.8125 0.1875 1.8125 0 0 Z " fill="#F4B326" transform="translate(61,269)"/>
<path d="M0 0 C0.54613449 0.28462601 1.09226898 0.56925201 1.654953 0.86250305 C7.30648646 3.61831041 11.68429403 4.54529583 17.92578125 4.35546875 C18.79484604 4.34684814 19.66391083 4.33822754 20.55931091 4.3293457 C22.46774905 4.30905213 24.37610948 4.28000064 26.28430176 4.24325562 C31.64870206 4.14448552 37.01377018 4.12672417 42.37890625 4.09375 C43.56672699 4.0846611 44.75454773 4.0755722 45.97836304 4.06620789 C60.97461 3.95851328 75.9698926 3.99735679 90.96588993 4.12727833 C95.28834846 4.16434104 99.610388 4.19193485 103.93301392 4.19638062 C108.05177218 4.20066202 112.16971938 4.22837747 116.28822517 4.27362061 C117.82162863 4.28640242 119.35512865 4.29072205 120.88857841 4.28610229 C123.00444865 4.28122167 125.11783508 4.30715784 127.23339844 4.34057617 C129.02025055 4.35056892 129.02025055 4.35056892 130.84320068 4.36076355 C134.90657036 5.18357607 136.39391611 6.85286841 139 10 C140.22863119 12.45726238 140.12312293 14.04823262 140.12025452 16.7961731 C140.12231651 18.31484482 140.12231651 18.31484482 140.12442017 19.86419678 C140.12082489 20.97909485 140.11722961 22.09399292 140.11352539 23.24267578 C140.11367142 24.4133963 140.11381744 25.58411682 140.1139679 26.79031372 C140.1133896 30.0049861 140.10836593 33.21961523 140.10139394 36.43427896 C140.09515295 39.79219278 140.09455601 43.1501074 140.09336853 46.50802612 C140.09025742 52.86867548 140.08204698 59.22930769 140.07201904 65.58994949 C140.06085109 72.83048451 140.05534573 80.07102034 140.05032361 87.31156182 C140.0398642 102.20771744 140.022269 117.10385701 140 132 C139.67 132 139.34 132 139 132 C137.75966231 95.6178606 138.16021657 59.38987082 139 23 C138.01 23 137.02 23 136 23 C135.67 22.34 135.34 21.68 135 21 C134.01 21.33 133.02 21.66 132 22 C132 20.02 132 18.04 132 16 C132.66 16 133.32 16 134 16 C134 15.01 134 14.02 134 13 C132.68 13.33 131.36 13.66 130 14 C130 13.01 130 12.02 130 11 C87.43 10.67 44.86 10.34 1 10 C1 9.67 1 9.34 1 9 C17.52419996 8.97666256 34.04839459 8.95901666 50.57260704 8.94818783 C58.24469935 8.94302667 65.91678144 8.9359874 73.58886719 8.92456055 C80.27412409 8.91460821 86.9593736 8.90814526 93.6446377 8.90591151 C97.18598702 8.90460534 100.72731515 8.90152537 104.26865768 8.89426994 C108.21735793 8.88624519 112.16603725 8.88600922 116.11474609 8.88647461 C117.29509933 8.88287933 118.47545258 8.87928406 119.6915741 8.87557983 C120.76292099 8.8769545 121.83426788 8.87832916 122.93807983 8.87974548 C123.87277792 8.87882369 124.80747601 8.8779019 125.77049828 8.87695217 C128 9 128 9 130 10 C130 9.01 130 8.02 130 7 C129.3795408 6.99761165 128.75908159 6.99522329 128.11982059 6.99276257 C112.99504022 6.93352445 97.87043676 6.85791837 82.7458353 6.76428509 C75.4315644 6.71939516 68.11734145 6.679965 60.80297852 6.65356445 C54.42483341 6.63052906 48.04684092 6.59706966 41.66881698 6.55129844 C38.29434631 6.52744048 34.92002608 6.50866328 31.5454731 6.50238609 C27.77040391 6.49273845 23.99588138 6.46466922 20.22094727 6.43237305 C18.55829834 6.43452568 18.55829834 6.43452568 16.86206055 6.4367218 C10.37746068 6.35846118 5.00174908 5.49977211 -1 3 C-0.67 2.01 -0.34 1.02 0 0 Z " fill="#F3C24A" transform="translate(162,105)"/>
<path d="M0 0 C0.99 0.33 1.98 0.66 3 1 C3.08150744 3.06183633 3.1394194 5.12461349 3.1875 7.1875 C3.22230469 8.33605469 3.25710938 9.48460937 3.29296875 10.66796875 C2.96899939 14.35258031 2.28022694 16.11512861 0 19 C-3.86141546 21.7929133 -8.35380909 21.27165075 -12.90899658 21.24050903 C-13.81896291 21.24221788 -14.72892923 21.24392673 -15.66647029 21.24568737 C-18.72206237 21.24898717 -21.77743589 21.23797041 -24.83300781 21.22705078 C-27.02076207 21.22648677 -29.20851671 21.22680302 -31.39627075 21.22793579 C-37.34215827 21.22851071 -43.28796545 21.21673382 -49.23383427 21.20278788 C-55.44517169 21.19030375 -61.65651086 21.18911185 -67.86785889 21.18673706 C-78.29538338 21.18122279 -88.72288031 21.16872179 -99.15039062 21.15087891 C-109.8906235 21.13252002 -120.63084835 21.11836356 -131.37109375 21.10986328 C-132.03315587 21.10933783 -132.695218 21.10881239 -133.37734261 21.10827102 C-136.69872384 21.10566094 -140.02010513 21.10313803 -143.34148645 21.10064721 C-170.89434487 21.07972983 -198.44717036 21.04454066 -226 21 C-226 20.67 -226 20.34 -226 20 C-153.07 20 -80.14 20 -5 20 C-5 19.34 -5 18.68 -5 18 C-4.01 18 -3.02 18 -2 18 C-2 17.34 -2 16.68 -2 16 C-77.24 16 -152.48 16 -230 16 C-230 15.67 -230 15.34 -230 15 C-228.30618179 14.99365209 -228.30618179 14.99365209 -226.57814503 14.98717594 C-199.12065482 14.88404997 -171.66319123 14.7753102 -144.20574665 14.66066074 C-130.92761937 14.60534789 -117.64948941 14.55186903 -104.37133789 14.50268555 C-92.80010614 14.45982002 -81.22889402 14.41353599 -69.65769261 14.36312145 C-63.52905247 14.33653965 -57.40041617 14.31168699 -51.27175331 14.29092598 C-45.50576398 14.27133958 -39.73981195 14.24718969 -33.97385597 14.21950912 C-31.85545021 14.21014933 -29.73703627 14.2024702 -27.61861801 14.19658089 C-24.73014551 14.18830155 -21.84176308 14.17401963 -18.95332336 14.15821838 C-17.69115674 14.15675122 -17.69115674 14.15675122 -16.4034918 14.15525442 C-12.45322154 14.12739732 -8.86782472 13.89085455 -5 13 C-4.01 13 -3.02 13 -2 13 C-2 12.01 -2 11.02 -2 10 C-1.34 10 -0.68 10 0 10 C0 9.34 0 8.68 0 8 C0.66 8 1.32 8 2 8 C1.67 7.4225 1.34 6.845 1 6.25 C0 4 0 4 0 0 Z " fill="#FDE190" transform="translate(298,256)"/>
<path d="M0 0 C0.33 0 0.66 0 1 0 C1.33 13.53 1.66 27.06 2 41 C2.66 41 3.32 41 4 41 C4.185625 40.0409375 4.185625 40.0409375 4.375 39.0625 C4.58125 38.381875 4.7875 37.70125 5 37 C5.99 36.505 5.99 36.505 7 36 C7 37.32 7 38.64 7 40 C6.34 40 5.68 40 5 40 C5.33 40.99 5.66 41.98 6 43 C5.01 43.495 5.01 43.495 4 44 C2.59455649 48.55147475 2.85931059 53.31830657 2.87060547 58.03442383 C2.86885315 58.93604248 2.86710083 59.83766113 2.86529541 60.76660156 C2.86089637 63.74676442 2.86381079 66.72686779 2.8671875 69.70703125 C2.86651326 71.79147859 2.86554222 73.87592585 2.86428833 75.96037292 C2.86281345 80.33581285 2.8649568 84.71123237 2.86962891 89.08666992 C2.87528717 94.65298778 2.87207081 100.21925699 2.86605644 105.78557301 C2.8624118 110.09684096 2.86360785 114.40809775 2.86618423 118.71936607 C2.86684479 120.76875502 2.86605607 122.81814503 2.86370468 124.86753273 C2.61692338 142.47740448 2.61692338 142.47740448 4 160 C4.66 160.66 5.32 161.32 6 162 C3 164 3 164 1 165 C1 167.31 1 169.62 1 172 C0.67 172 0.34 172 0 172 C0 115.24 0 58.48 0 0 Z " fill="#F9EAB6" transform="translate(57,96)"/>
<path d="M0 0 C0.66 0 1.32 0 2 0 C1.8125 2.3125 1.8125 2.3125 1 5 C-1.25 6.6875 -1.25 6.6875 -4 8 C-4.71286667 8.35049408 -5.42573334 8.70098816 -6.16020203 9.06210327 C-9.84669155 10.27963582 -13.34689517 10.30790654 -17.18676758 10.31884766 C-18.40218231 10.33391609 -18.40218231 10.33391609 -19.64215088 10.34928894 C-22.30960406 10.38007993 -24.97695704 10.39714466 -27.64453125 10.4140625 C-29.49827433 10.43277744 -31.35200892 10.4523511 -33.20573425 10.4727478 C-38.0767618 10.52404058 -42.94781695 10.56368161 -47.81896973 10.60089111 C-52.79279393 10.64094862 -57.76650355 10.69203301 -62.74023438 10.7421875 C-72.49340906 10.83891301 -82.24664849 10.92332864 -92 11 C-92 10.01 -92 9.02 -92 8 C-91.34 8 -90.68 8 -90 8 C-89.67 7.34 -89.34 6.68 -89 6 C-88.05754425 6.00888245 -87.1150885 6.01776489 -86.14407349 6.0269165 C-77.22927356 6.10827131 -68.31454971 6.16809383 -59.39946175 6.20724869 C-54.81693075 6.22805592 -50.23470127 6.25624687 -45.65234375 6.30175781 C-41.22379499 6.3454621 -36.79553486 6.36918864 -32.36678696 6.37950897 C-30.68360735 6.38685649 -29.00044217 6.40120378 -27.31738663 6.42292023 C-14.15827639 6.64905717 -14.15827639 6.64905717 -2 2 C-1.34 1.34 -0.68 0.68 0 0 Z " fill="#F4DFA4" transform="translate(158,119)"/>
<path d="M0 0 C0.68067535 -0.00525696 1.36135071 -0.01051392 2.06265259 -0.01593018 C4.29143884 -0.02903098 6.5194987 -0.02042711 8.74829102 -0.01025391 C10.31096024 -0.01227774 11.87362854 -0.01519176 13.43629456 -0.01895142 C16.70355261 -0.02336153 19.97056374 -0.0169872 23.23779297 -0.00292969 C27.40825573 0.01414738 31.57813854 0.00432235 35.74857998 -0.01364708 C38.97353922 -0.02453277 42.19836297 -0.02101651 45.42332649 -0.0132637 C46.96018608 -0.01127415 48.4970583 -0.01367682 50.03390312 -0.02070236 C65.17681775 -0.07473861 65.17681775 -0.07473861 71.81469727 3.38818359 C73.31469727 5.57568359 73.31469727 5.57568359 73.81469727 7.38818359 C72.82469727 6.72818359 71.83469727 6.06818359 70.81469727 5.38818359 C68.82499776 4.99804644 66.82449858 4.6561571 64.81469727 4.38818359 C64.81469727 4.05818359 64.81469727 3.72818359 64.81469727 3.38818359 C42.04469727 3.38818359 19.27469727 3.38818359 -4.18530273 3.38818359 C-4.51530273 4.04818359 -4.84530273 4.70818359 -5.18530273 5.38818359 C-7.82530273 5.38818359 -10.46530273 5.38818359 -13.18530273 5.38818359 C-13.18530273 6.04818359 -13.18530273 6.70818359 -13.18530273 7.38818359 C-14.17530273 7.71818359 -15.16530273 8.04818359 -16.18530273 8.38818359 C-15.62280273 6.07568359 -15.62280273 6.07568359 -14.18530273 3.38818359 C-9.27961022 0.82080611 -5.60229856 0.01094555 0 0 Z " fill="#F6D580" transform="translate(76.185302734375,82.61181640625)"/>
<path d="M0 0 C0.83007568 0.00960754 1.66015137 0.01921509 2.51538086 0.02911377 C5.23699021 0.06188188 7.95842769 0.10229742 10.67993164 0.14282227 C12.57564198 0.16714512 14.47135853 0.19098757 16.36708069 0.21437073 C21.34012982 0.2769963 26.31306788 0.34612319 31.28601074 0.41662598 C36.36713635 0.48750462 41.44834027 0.55220445 46.52954102 0.61743164 C56.48730939 0.74616624 66.44497135 0.88177248 76.40258789 1.02172852 C76.40258789 1.68172852 76.40258789 2.34172852 76.40258789 3.02172852 C30.36758789 3.51672852 30.36758789 3.51672852 -16.59741211 4.02172852 C-16.26741211 3.03172852 -15.93741211 2.04172852 -15.59741211 1.02172852 C-10.33284246 0.13565525 -5.33120375 -0.0896748 0 0 Z " fill="#ECB337" transform="translate(86.597412109375,113.978271484375)"/>
<path d="M0 0 C0.91349685 0.00092179 1.82699369 0.00184359 2.76817226 0.00279331 C3.81290203 0.00141865 4.8576318 0.00004398 5.93402004 -0.00137234 C7.08991634 0.00222294 8.24581264 0.00581821 9.43673611 0.00952244 C10.64632488 0.00937641 11.85591366 0.00923038 13.10215664 0.00907993 C16.42846172 0.0096589 19.75470541 0.0146881 23.08099961 0.02165389 C26.55369751 0.02788805 30.02639615 0.02849128 33.49909878 0.0296793 C40.07936014 0.03279243 46.65960497 0.04100557 53.23985904 0.05102879 C60.72945933 0.06219049 68.21906039 0.06770052 75.70866692 0.07272422 C91.11925361 0.0831882 106.52982378 0.1007873 121.94039822 0.12304783 C121.94039822 0.45304783 121.94039822 0.78304783 121.94039822 1.12304783 C120.1972559 1.13850903 120.1972559 1.13850903 118.41889858 1.15428257 C107.45750005 1.25211622 96.49615702 1.35485955 85.53484917 1.46238708 C79.89978788 1.51750836 74.26472132 1.57091084 68.6296072 1.62036228 C63.18957603 1.66816538 57.74960571 1.72051344 52.30964756 1.77598858 C50.23608894 1.79634004 48.16251369 1.81506472 46.08892536 1.83212185 C43.18054997 1.85632604 40.27228795 1.8863579 37.3639822 1.91772556 C36.51017971 1.92348103 35.65637722 1.92923649 34.77670193 1.93516636 C30.07558673 1.99264957 25.59514962 2.38596967 20.94039822 3.12304783 C18.67192415 3.19957982 16.40154505 3.23116371 14.13180447 3.22070408 C12.89108181 3.21748142 11.65035915 3.21425877 10.37203884 3.21093845 C9.09522243 3.20255955 7.81840603 3.19418064 6.50289822 3.18554783 C4.54706814 3.17878025 4.54706814 3.17878025 2.55172634 3.17187595 C-0.65209731 3.16014034 -3.85582541 3.14372146 -7.05960178 3.12304783 C-6.42022678 2.81367283 -5.78085178 2.50429783 -5.12210178 2.18554783 C-0.99495541 0.05944212 -0.99495541 0.05944212 0 0 Z " fill="#EFAF27" transform="translate(172.05960178375244,110.87695217132568)"/>
<path d="M0 0 C0 0.66 0 1.32 0 2 C-8.87179383 5.88621667 -17.88152676 5.47778029 -27.37890625 5.51171875 C-29.15967532 5.52858516 -30.94043264 5.54673801 -32.72117615 5.56611633 C-37.38172733 5.61340963 -42.04223079 5.64335223 -46.70294189 5.66955566 C-51.46937478 5.69946605 -56.2356436 5.74596013 -61.00195312 5.79101562 C-70.33454923 5.87681326 -79.66717931 5.94426267 -89 6 C-88.34 5.01 -87.68 4.02 -87 3 C-84.5256234 2.72902171 -82.3045622 2.65229459 -79.83154297 2.70703125 C-79.09307632 2.71141205 -78.35460968 2.71579285 -77.59376526 2.7203064 C-75.98677459 2.73173886 -74.37982199 2.75010406 -72.77297592 2.77450562 C-70.22496762 2.81275852 -67.67742745 2.83233448 -65.12918091 2.84692383 C-58.79488112 2.8870755 -52.46102099 2.95937919 -46.12701416 3.03112793 C-40.78441961 3.09049406 -35.4419954 3.13736163 -30.09915543 3.16781616 C-27.59744081 3.18716926 -25.09642682 3.22470523 -22.59494019 3.26293945 C-21.0449076 3.27384881 -19.49486868 3.28390252 -17.94482422 3.29296875 C-17.25672165 3.30846771 -16.56861908 3.32396667 -15.85966492 3.3399353 C-10.11868008 3.34178614 -5.38151301 0 0 0 Z " fill="#F3EFD7" transform="translate(156,122)"/>
<path d="M0 0 C0.54613449 0.28462601 1.09226898 0.56925201 1.654953 0.86250305 C7.30658015 3.61835609 11.68424348 4.54509087 17.92578125 4.35546875 C18.79507263 4.34707474 19.66436401 4.33868073 20.55999756 4.33003235 C22.46866499 4.31010405 24.37725543 4.28127681 26.28567505 4.24462891 C31.64312838 4.14351125 37.00116825 4.1129675 42.359375 4.07421875 C43.54616348 4.0640976 44.73295197 4.05397644 45.95570374 4.04354858 C62.78866354 3.92574293 79.61942561 4.2172155 96.45022202 4.46222305 C99.93457817 4.51261139 103.41895891 4.56116339 106.90334129 4.6096983 C115.93562508 4.73552748 124.96783641 4.86582185 134 5 C134.33 5.66 134.66 6.32 135 7 C118.59657208 6.93937559 102.19332424 6.86181251 85.79007816 6.76428509 C78.17313588 6.71938922 70.5562397 6.67996038 62.93920898 6.65356445 C56.29737887 6.63053392 49.65569543 6.59707982 43.01398176 6.55129844 C39.49978355 6.52743403 35.98573 6.50866101 32.47145271 6.50238609 C28.54078448 6.49517184 24.61047749 6.46467803 20.67993164 6.43237305 C18.94715218 6.43452568 18.94715218 6.43452568 17.17936707 6.4367218 C10.48521172 6.35907641 5.2324997 5.47614731 -1 3 C-0.67 2.01 -0.34 1.02 0 0 Z " fill="#FEDE8C" transform="translate(162,105)"/>
<path d="M0 0 C0.99 0.33 1.98 0.66 3 1 C3.08150744 3.06183633 3.1394194 5.12461349 3.1875 7.1875 C3.23970703 8.91033203 3.23970703 8.91033203 3.29296875 10.66796875 C2.97306986 14.30628548 2.25377184 16.1508922 0 19 C-2.6875 19.3125 -2.6875 19.3125 -5 19 C-4.01 18.67 -3.02 18.34 -2 18 C-2 17.34 -2 16.68 -2 16 C-17.84 16 -33.68 16 -50 16 C-50 15.67 -50 15.34 -50 15 C-48.81446533 14.97494385 -47.62893066 14.9498877 -46.4074707 14.92407227 C-41.99981282 14.82974468 -37.59230322 14.72958623 -33.18481445 14.62768555 C-31.27892532 14.58443247 -29.37299983 14.54275075 -27.46704102 14.50268555 C-24.72400979 14.44474929 -21.98115987 14.3811226 -19.23828125 14.31640625 C-17.96456413 14.29133751 -17.96456413 14.29133751 -16.66511536 14.26576233 C-12.64646448 14.16562786 -8.93451976 13.89542987 -5 13 C-4.01 13 -3.02 13 -2 13 C-2 12.01 -2 11.02 -2 10 C-1.34 10 -0.68 10 0 10 C0 9.34 0 8.68 0 8 C0.66 8 1.32 8 2 8 C1.505 7.13375 1.505 7.13375 1 6.25 C0 4 0 4 0 0 Z " fill="#F6BC31" transform="translate(298,256)"/>
<path d="M0 0 C12.54 0 25.08 0 38 0 C34.8956503 3.1043497 31.19774352 2.85956587 27 3 C22.29842489 2.83763435 17.62406519 2.4636361 12.9375 2.0625 C11.69033203 1.96259766 10.44316406 1.86269531 9.15820312 1.75976562 C6.10476702 1.51408686 3.05218835 1.26064993 0 1 C0 0.67 0 0.34 0 0 Z M20 3 C22.31 3 24.62 3 27 3 C27 3.33 27 3.66 27 4 C24.69 4 22.38 4 20 4 C20 3.67 20 3.34 20 3 Z " fill="#FCD057" transform="translate(229,115)"/>
<path d="M0 0 C0.51767441 0.2816803 1.03534882 0.5633606 1.56871033 0.85357666 C7.93635462 4.03247527 13.32856874 4.60074281 20.37890625 4.609375 C21.43158188 4.62591125 22.48425751 4.64244751 23.5688324 4.65948486 C26.90011582 4.7077058 30.2309436 4.72927867 33.5625 4.75 C35.83400698 4.77818126 38.10549297 4.80811168 40.37695312 4.83984375 C45.91788673 4.91345752 51.45869356 4.96525135 57 5 C57 5.33 57 5.66 57 6 C50.18651563 6.07642878 43.37314295 6.12875823 36.55932617 6.16479492 C34.24417998 6.17982729 31.929062 6.2002587 29.61401367 6.22631836 C26.27515676 6.26294596 22.9366783 6.27978241 19.59765625 6.29296875 C18.05961082 6.31619453 18.05961082 6.31619453 16.49049377 6.33988953 C10.11413349 6.34136334 4.90174706 5.442144 -1 3 C-0.67 2.01 -0.34 1.02 0 0 Z " fill="#F9CB68" transform="translate(162,105)"/>
<path d="M0 0 C0.66 0 1.32 0 2 0 C2.33 1.32 2.66 2.64 3 4 C3.66 4 4.32 4 5 4 C5 5.98 5 7.96 5 10 C4.01 10 3.02 10 2 10 C1.67 9.34 1.34 8.68 1 8 C0.01 8.33 -0.98 8.66 -2 9 C-2 7.02 -2 5.04 -2 3 C-1.34 3 -0.68 3 0 3 C0 2.01 0 1.02 0 0 Z " fill="#FCC94F" transform="translate(296,118)"/>
<path d="M0 0 C4.875 4.75 4.875 4.75 6 7 C5.34 7 4.68 7 4 7 C4.57944932 8.99863756 4.57944932 8.99863756 6 11 C9.04199472 12.29231642 9.04199472 12.29231642 12 13 C10.3125 13.6875 10.3125 13.6875 8 14 C5.4375 12.75 5.4375 12.75 3 11 C2.401875 10.608125 1.80375 10.21625 1.1875 9.8125 C-0.81913872 6.74973564 -0.17642563 3.58732113 0 0 Z " fill="#F3CA67" transform="translate(58,263)"/>
<path d="M0 0 C2.375 0.1875 2.375 0.1875 5 1 C6.59660706 3.88909849 7 5.69058796 7 9 C6.34 9 5.68 9 5 9 C4.938125 8.38125 4.87625 7.7625 4.8125 7.125 C4.171081 4.72238859 4.171081 4.72238859 1.4375 3.75 C0.633125 3.5025 -0.17125 3.255 -1 3 C-0.67 2.01 -0.34 1.02 0 0 Z " fill="#F4B222" transform="translate(294,113)"/>
<path d="M0 0 C0.33 1.32 0.66 2.64 1 4 C0.34 4 -0.32 4 -1 4 C-0.67 4.99 -0.34 5.98 0 7 C-0.99 7.495 -0.99 7.495 -2 8 C-2.65555119 10.52733235 -2.65555119 10.52733235 -3 13 C-3.33 13 -3.66 13 -4 13 C-4 10.36 -4 7.72 -4 5 C-3.34 5 -2.68 5 -2 5 C-1.7834375 4.0409375 -1.7834375 4.0409375 -1.5625 3.0625 C-1 1 -1 1 0 0 Z " fill="#FCE296" transform="translate(63,132)"/>
<path d="M0 0 C4.21912747 0.4794463 6.79663178 1.16625119 10 4 C9.67 4.66 9.34 5.32 9 6 C8.34 5.34 7.68 4.68 7 4 C5.01178687 3.60235737 3.01055661 3.26224651 1 3 C0.67 2.01 0.34 1.02 0 0 Z " fill="#F5D77D" transform="translate(140,84)"/>
<path d="M0 0 C0.66 0 1.32 0 2 0 C1.67 1.65 1.34 3.3 1 5 C0.01 5.33 -0.98 5.66 -2 6 C-1.125 1.125 -1.125 1.125 0 0 Z " fill="#F3DFA3" transform="translate(158,119)"/>
<path d="M0 0 C0.99 0.33 1.98 0.66 3 1 C3 3.31 3 5.62 3 8 C0.37613513 4.93882432 0 4.26826873 0 0 Z " fill="#FDC33F" transform="translate(298,256)"/>
<path d="M0 0 C1.98 0.99 3.96 1.98 6 3 C6 3.66 6 4.32 6 5 C1.25 4.25 1.25 4.25 -1 2 C-0.67 1.34 -0.34 0.68 0 0 Z " fill="#EFC85C" transform="translate(162,105)"/>
</svg>
